<svg xmlns="http://www.w3.org/2000/svg" xmlns:xlink="http://www.w3.org/1999/xlink" width="40" height="40" viewBox="0 0 40 40">
  <defs>
    <clipPath id="clip-path">
      <rect id="Rectangle_19" data-name="Rectangle 19" width="40" height="40"/>
    </clipPath>
  </defs>
  <g id="insurance_40px" clip-path="url(#clip-path)">
    <g id="Group_77" data-name="Group 77" transform="translate(28.51 245)">
      <g id="Group_69" data-name="Group 69" transform="translate(-21.912 -227.446)">
        <path id="Path_65" data-name="Path 65" d="M3.429,0h8.864Q13.4,3.527,20.647,7.36A22.491,22.491,0,0,0,26.8,3.138V14.781H0V3.429A3.429,3.429,0,0,1,3.429,0Z" fill="#fff" stroke="#212121" stroke-linejoin="round" stroke-width="1"/>
      </g>
      <g id="Group_70" data-name="Group 70" transform="translate(-26.959 -222.751)">
        <path id="Path_66" data-name="Path 66" d="M2.524,0A2.524,2.524,0,0,1,5.047,2.524V14.26H0V2.524A2.524,2.524,0,0,1,2.524,0Z" fill="#fff" stroke="#212121" stroke-linejoin="round" stroke-width="1"/>
      </g>
      <g id="Group_71" data-name="Group 71" transform="translate(4.891 -222.751)">
        <path id="Path_67" data-name="Path 67" d="M2.524,0A2.524,2.524,0,0,1,5.047,2.524V14.26H0V2.524A2.524,2.524,0,0,1,2.524,0Z" fill="#fff" stroke="#212121" stroke-linejoin="round" stroke-width="1"/>
      </g>
      <g id="Group_72" data-name="Group 72" transform="translate(-23.826 -208.491)">
        <path id="Path_68" data-name="Path 68" d="M0,0H3.655V2.782H0Z" fill="#fff" stroke="#212121" stroke-linejoin="round" stroke-width="1"/>
      </g>
      <g id="Group_73" data-name="Group 73" transform="translate(3.325 -208.491)">
        <path id="Path_69" data-name="Path 69" d="M0,0H3.655V2.782H0Z" fill="#fff" stroke="#212121" stroke-linejoin="round" stroke-width="1"/>
      </g>
      <g id="Group_74" data-name="Group 74" transform="translate(-9.619 -243.041)">
        <path id="Path_70" data-name="Path 70" d="M0,3.868V15.723q1.518,3.811,8.354,7.231,6.6-3.429,8.354-7.231V3.868A17.91,17.91,0,0,1,8.354,0,17.709,17.709,0,0,1,0,3.868Z" fill="#fff" stroke="#212121" stroke-linejoin="round" stroke-width="1"/>
      </g>
      <g id="Group_75" data-name="Group 75" transform="translate(-7.531 -240.258)">
        <path id="Path_71" data-name="Path 71" d="M0,2.9v8.891q1.122,2.858,6.179,5.423,4.882-2.572,6.179-5.423V2.9A13.162,13.162,0,0,1,6.179,0,13.017,13.017,0,0,1,0,2.9Z" fill="#fff" stroke="#212121" stroke-linejoin="round" stroke-width="1"/>
      </g>
      <g id="Group_66" data-name="Group 66" transform="translate(-21.912 -212.665)">
        <path id="Path_62" data-name="Path 62" d="M0,0H26.8V4.174H0Z" fill="#fff" stroke="#212121" stroke-linejoin="round" stroke-width="1"/>
      </g>
      <g id="Group_67" data-name="Group 67" transform="translate(-21.912 -217.186)">
        <path id="Path_63" data-name="Path 63" d="M2.122,0h9.157A2.122,2.122,0,0,1,13.4,2.122v2.4H0v-2.4A2.122,2.122,0,0,1,2.122,0Z" fill="#fff" stroke="#212121" stroke-linejoin="round" stroke-width="1"/>
      </g>
      <g id="Group_68" data-name="Group 68" transform="translate(-8.51 -217.186)">
        <path id="Path_64" data-name="Path 64" d="M2.122,0h9.157A2.122,2.122,0,0,1,13.4,2.122v2.4H0v-2.4A2.122,2.122,0,0,1,2.122,0Z" fill="#fff" stroke="#212121" stroke-linejoin="round" stroke-width="1"/>
      </g>
    </g>
  </g>
</svg>
