<svg xmlns="http://www.w3.org/2000/svg" xmlns:xlink="http://www.w3.org/1999/xlink" width="40" height="40" viewBox="0 0 40 40">
  <defs>
    <clipPath id="clip-path">
      <rect id="Rectangle_41" data-name="Rectangle 41" width="40" height="40"/>
    </clipPath>
  </defs>
  <g id="support_hover_red_40px" clip-path="url(#clip-path)">
    <g id="Group_366" data-name="Group 366">
      <rect id="Rectangle_29" data-name="Rectangle 29" width="8" height="9" transform="translate(16 29)" fill="#fff"/>
      <g id="Group_95" data-name="Group 95" transform="translate(45.283 244.263)">
        <g id="Group_78" data-name="Group 78" transform="translate(-40.62 -212.277)">
          <path id="Path_73" data-name="Path 73" d="M0,7.107A7.945,7.945,0,0,1,7.175.562L10.932,0q1.1,4.4,4.269,4.4T19.247,0l3.909.562q6.322.877,7.307,6.545Z" fill="#fff" stroke="#212121" stroke-linejoin="round" stroke-width="1"/>
        </g>
        <g id="Group_79" data-name="Group 79" transform="translate(-17.063 -232.863)">
          <path id="Path_74" data-name="Path 74" d="M0,.036Q6.364-.423,6.4,5.027t0,13.144Q.787,17.98.948,4.245A13.316,13.316,0,0,0,0,.036Z" fill="#fff" stroke="#212121" stroke-width="1"/>
        </g>
        <g id="Group_80" data-name="Group 80" transform="translate(-36.921 -227.094)">
          <path id="Path_75" data-name="Path 75" d="M2.4,3.89V0A2.211,2.211,0,0,0,0,1.945,2.211,2.211,0,0,0,2.4,3.89Z" fill="#fff" stroke="#212121" stroke-width="1"/>
        </g>
        <g id="Group_81" data-name="Group 81" transform="translate(-34.425 -237.287)">
          <path id="Path_76" data-name="Path 76" d="M7.826,0h2.656a7.826,7.826,0,0,1,7.826,7.826v7.129a7.826,7.826,0,0,1-7.826,7.826H7.826A7.826,7.826,0,0,1,0,14.955V7.826A7.826,7.826,0,0,1,7.826,0Z" fill="#fff" stroke="#212121" stroke-width="1"/>
        </g>
        <g id="Group_82" data-name="Group 82" transform="translate(-34.401 -237.466)">
          <path id="Path_77" data-name="Path 77" d="M0,9.342c1.491,1.32,5.885.454,6.65-4.5.015.511,2.773,5.747,11.609,5.167C18.238-.262,11.036.022,8.917,0S.1.531,0,9.342Z" fill="#fff" stroke="#212121" stroke-linejoin="round" stroke-width="1"/>
        </g>
        <g id="Group_83" data-name="Group 83" transform="translate(-27.674 -219.13)">
          <path id="Path_78" data-name="Path 78" d="M0,0A4.238,4.238,0,0,0,2.663.925,3.243,3.243,0,0,0,5.178,0" fill="#fff" stroke="#212121" stroke-linecap="round" stroke-width="1"/>
        </g>
        <g id="Group_84" data-name="Group 84" transform="translate(-27.674 -223.019) rotate(180)">
          <path id="Path_79" data-name="Path 79" d="M0,0A2.38,2.38,0,0,0,1.807.925,1.873,1.873,0,0,0,3.514,0" fill="#fff" stroke="#212121" stroke-linecap="round" stroke-width="1"/>
        </g>
        <g id="Group_85" data-name="Group 85" transform="translate(-19.537 -223.019) rotate(180)">
          <path id="Path_80" data-name="Path 80" d="M0,0A2.38,2.38,0,0,0,1.807.925,1.873,1.873,0,0,0,3.514,0" fill="#fff" stroke="#212121" stroke-linecap="round" stroke-width="1"/>
        </g>
        <g id="Group_86" data-name="Group 86" transform="translate(-35.954 -223.482)">
          <path id="Path_81" data-name="Path 81" d="M0,0V4.385Q.235,8.169,3.977,7.946" fill="none" stroke="#212121" stroke-linecap="round" stroke-linejoin="round" stroke-width="1"/>
        </g>
        <path id="Path_82" data-name="Path 82" d="M-49-204.263H-1.567V-243H-49Z" fill="rgba(0,0,0,0)"/>
        <path id="Path_84" data-name="Path 84" d="M-49-204.263H-1.567V-243H-49Z" fill="rgba(0,0,0,0)"/>
        <path id="Path_85" data-name="Path 85" d="M58.554-82.515l2.331-.5a1.027,1.027,0,0,1,.773.143,1.027,1.027,0,0,1,.446.648h0l.073.345a1.03,1.03,0,0,1-.792,1.219l-2.331.5a1.027,1.027,0,0,1-.773-.143,1.027,1.027,0,0,1-.446-.648h0l-.073-.345a1.03,1.03,0,0,1,.792-1.219Z" transform="translate(-89.863 -134.674)" fill="rgba(0,0,0,0)" fill-rule="evenodd"/>
        <g id="Group_91" data-name="Group 91" transform="translate(-13.619 -223.205) rotate(180)">
          <path id="Path_87" data-name="Path 87" d="M2.4,0V3.89A2.211,2.211,0,0,1,0,1.945,2.211,2.211,0,0,1,2.4,0Z" fill="rgba(0,0,0,0)" stroke="#212121" stroke-width="1"/>
        </g>
        <g id="Group_92" data-name="Group 92" transform="translate(-21.294 -215.148)">
          <path id="Path_88" data-name="Path 88" d="M.585,3.075V0" transform="translate(-0.585)" fill="rgba(0,0,0,0)" stroke="#212121" stroke-width="1"/>
        </g>
        <g id="Group_93" data-name="Group 93" transform="translate(-29.801 -215.518)">
          <path id="Path_89" data-name="Path 89" d="M.585,3.446V0" transform="translate(-0.585)" fill="rgba(0,0,0,0)" stroke="#212121" stroke-width="1"/>
        </g>
        <g id="Group_90" data-name="Group 90" transform="translate(-32.316 -216.975) rotate(-12.007)">
          <path id="Path_86" data-name="Path 86" d="M1.029,0H3.412A1.027,1.027,0,0,1,4.44,1.027h0V1.38A1.03,1.03,0,0,1,3.411,2.408H1.028A1.027,1.027,0,0,1,0,1.382H0V1.029A1.03,1.03,0,0,1,1.029,0Z" fill="#fff" stroke="#212121" stroke-width="1"/>
        </g>
      </g>
    </g>
    <g id="Group_95-2" data-name="Group 95" transform="translate(45.283 244.263)">
      <g id="Group_78-2" data-name="Group 78" transform="translate(-40.62 -212.277)">
        <path id="Path_73-2" data-name="Path 73" d="M0,7.107A7.945,7.945,0,0,1,7.175.562L10.932,0q1.1,4.4,4.269,4.4T19.247,0l3.909.562q6.322.877,7.307,6.545Z" fill="none" stroke="#212121" stroke-linejoin="round" stroke-width="1"/>
      </g>
      <g id="Group_79-2" data-name="Group 79" transform="translate(-17.063 -232.863)">
        <path id="Path_74-2" data-name="Path 74" d="M0,.036Q6.364-.423,6.4,5.027t0,13.144Q.787,17.98.948,4.245A13.316,13.316,0,0,0,0,.036Z" fill="none" stroke="#212121" stroke-width="1"/>
      </g>
      <g id="Group_86-2" data-name="Group 86" transform="translate(-35.954 -223.482)">
        <path id="Path_81-2" data-name="Path 81" d="M0,0V4.385Q.235,8.169,3.977,7.946" fill="none" stroke="#e74c4c" stroke-linecap="round" stroke-linejoin="round" stroke-width="1"/>
      </g>
      <g id="Group_80-2" data-name="Group 80" transform="translate(-36.921 -227.094)">
        <path id="Path_75-2" data-name="Path 75" d="M2.4,3.89V0A2.211,2.211,0,0,0,0,1.945,2.211,2.211,0,0,0,2.4,3.89Z" fill="none" stroke="#212121" stroke-width="1"/>
      </g>
      <g id="Group_81-2" data-name="Group 81" transform="translate(-34.425 -237.287)">
        <path id="Path_76-2" data-name="Path 76" d="M7.826,0h2.656a7.826,7.826,0,0,1,7.826,7.826v7.129a7.826,7.826,0,0,1-7.826,7.826H7.826A7.826,7.826,0,0,1,0,14.955V7.826A7.826,7.826,0,0,1,7.826,0Z" fill="none" stroke="#212121" stroke-width="1"/>
      </g>
      <g id="Group_82-2" data-name="Group 82" transform="translate(-34.401 -237.466)">
        <path id="Path_77-2" data-name="Path 77" d="M0,9.342c1.491,1.32,5.885.454,6.65-4.5.015.511,2.773,5.747,11.609,5.167C18.238-.262,11.036.022,8.917,0S.1.531,0,9.342Z" fill="none" stroke="#212121" stroke-linejoin="round" stroke-width="1"/>
      </g>
      <g id="Group_83-2" data-name="Group 83" transform="translate(-27.674 -219.13)">
        <path id="Path_78-2" data-name="Path 78" d="M0,0A4.238,4.238,0,0,0,2.663.925,3.243,3.243,0,0,0,5.178,0" fill="none" stroke="#212121" stroke-linecap="round" stroke-width="1"/>
      </g>
      <g id="Group_84-2" data-name="Group 84" transform="translate(-27.674 -223.019) rotate(180)">
        <path id="Path_79-2" data-name="Path 79" d="M0,0A2.38,2.38,0,0,0,1.807.925,1.873,1.873,0,0,0,3.514,0" fill="none" stroke="#212121" stroke-linecap="round" stroke-width="1"/>
      </g>
      <g id="Group_85-2" data-name="Group 85" transform="translate(-19.537 -223.019) rotate(180)">
        <path id="Path_80-2" data-name="Path 80" d="M0,0A2.38,2.38,0,0,0,1.807.925,1.873,1.873,0,0,0,3.514,0" fill="none" stroke="#212121" stroke-linecap="round" stroke-width="1"/>
      </g>
      <path id="Path_82-2" data-name="Path 82" d="M-49-204.263H-1.567V-243H-49Z" fill="none"/>
      <path id="Path_84-2" data-name="Path 84" d="M-49-204.263H-1.567V-243H-49Z" fill="none"/>
      <path id="Path_85-2" data-name="Path 85" d="M58.554-82.515l2.331-.5a1.027,1.027,0,0,1,.773.143,1.027,1.027,0,0,1,.446.648h0l.073.345a1.03,1.03,0,0,1-.792,1.219l-2.331.5a1.027,1.027,0,0,1-.773-.143,1.027,1.027,0,0,1-.446-.648h0l-.073-.345a1.03,1.03,0,0,1,.792-1.219Z" transform="translate(-89.863 -134.674)" fill="none" fill-rule="evenodd"/>
      <g id="Group_91-2" data-name="Group 91" transform="translate(-13.619 -223.205) rotate(180)">
        <path id="Path_87-2" data-name="Path 87" d="M2.4,0V3.89A2.211,2.211,0,0,1,0,1.945,2.211,2.211,0,0,1,2.4,0Z" fill="none" stroke="#212121" stroke-width="1"/>
      </g>
      <g id="Group_92-2" data-name="Group 92" transform="translate(-21.294 -215.148)">
        <path id="Path_88-2" data-name="Path 88" d="M.585,3.075V0" transform="translate(-0.585)" fill="none" stroke="#212121" stroke-width="1"/>
      </g>
      <g id="Group_93-2" data-name="Group 93" transform="translate(-29.801 -215.518)">
        <path id="Path_89-2" data-name="Path 89" d="M.585,3.446V0" transform="translate(-0.585)" fill="none" stroke="#212121" stroke-width="1"/>
      </g>
      <g id="Group_90-2" data-name="Group 90" transform="translate(-32.316 -216.975) rotate(-12.007)">
        <path id="Path_86-2" data-name="Path 86" d="M1.029,0H3.412A1.027,1.027,0,0,1,4.44,1.027h0V1.38A1.03,1.03,0,0,1,3.411,2.408H1.028A1.027,1.027,0,0,1,0,1.382H0V1.029A1.03,1.03,0,0,1,1.029,0Z" fill="#e74c4c" stroke="#e74c4c" stroke-width="1"/>
      </g>
      <path id="Path_90" data-name="Path 90" d="M-49-204.263H-1.567V-243H-49Z" fill="none"/>
    </g>
    <g id="Ellipse_1" data-name="Ellipse 1" transform="translate(26 4)" fill="#e74c4c" stroke="#e74c4c" stroke-width="1">
      <circle cx="6.5" cy="6.5" r="6.5" stroke="none"/>
      <circle cx="6.5" cy="6.5" r="6" fill="none"/>
    </g>
    <path id="Path_91" data-name="Path 91" d="M624.327,18.9l-.661,3.53,4.986-2.092Z" transform="translate(-596 -4)" fill="#e74c4c" stroke="#e74c4c" stroke-linecap="round" stroke-linejoin="round" stroke-width="1"/>
  </g>
</svg>
