<svg xmlns="http://www.w3.org/2000/svg" xmlns:xlink="http://www.w3.org/1999/xlink" width="40" height="40" viewBox="0 0 40 40">
  <defs>
    <clipPath id="clip-path">
      <rect id="Rectangle_9" data-name="Rectangle 9" width="40" height="40"/>
    </clipPath>
    <clipPath id="clip-path-2">
      <path id="Path_309" data-name="Path 309" d="M-53-176.477H5.191V-224H-53Z" transform="translate(53 224)" fill="#fff"/>
    </clipPath>
    <clipPath id="clip-path-3">
      <path id="Path_309-2" data-name="Path 309" d="M-53-176.477H5.191V-224H-53Z" transform="translate(53 224)" fill="none"/>
    </clipPath>
  </defs>
  <g id="boost_hover_red_40px" clip-path="url(#clip-path)">
    <g id="Group_314" data-name="Group 314" transform="translate(45.097 219.681)">
      <g id="Group_313" data-name="Group 313" transform="translate(-53 -224)" clip-path="url(#clip-path-2)">
        <g id="Group_300" data-name="Group 300" transform="translate(19.397 8.923)">
          <path id="Path_296" data-name="Path 296" d="M0,14.629,14.624,0l9.234,9.238L9.243,23.858Z" fill="#fff" stroke="#212121" stroke-linecap="round" stroke-linejoin="round" stroke-width="1"/>
        </g>
        <g id="Group_301" data-name="Group 301" transform="translate(30.065 25.41)">
          <path id="Path_297" data-name="Path 297" d="M0,6.076,1.517,12.8Q8.882,7.135,5.958,0L.42,5.677Z" fill="#fff" stroke="#212121" stroke-linecap="round" stroke-linejoin="round" stroke-width="1"/>
        </g>
        <g id="Group_302" data-name="Group 302" transform="translate(30.647 32.199)">
          <path id="Path_298" data-name="Path 298" d="M0,2.328,2.91,0" fill="#fff" stroke="#212121" stroke-linecap="round" stroke-linejoin="round" stroke-width="1"/>
        </g>
        <g id="Group_303" data-name="Group 303" transform="translate(30.065 15.518)">
          <path id="Path_299" data-name="Path 299" d="M3.3,6.595A3.3,3.3,0,1,0,0,3.3a3.3,3.3,0,0,0,3.3,3.3Z" fill="#fff" stroke="#212121" stroke-linecap="round" stroke-linejoin="round" stroke-width="1"/>
        </g>
        <g id="Group_304" data-name="Group 304" transform="translate(13.578 15.324)">
          <path id="Path_300" data-name="Path 300" d="M6.693,6.789,0,5.02Q5.943-2.221,13,.983l-5.888,5.4Z" fill="#fff" stroke="#212121" stroke-linecap="round" stroke-linejoin="round" stroke-width="1"/>
        </g>
        <g id="Group_305" data-name="Group 305" transform="translate(17.263 18.427)">
          <path id="Path_301" data-name="Path 301" d="M0,2.716,2.522,0" fill="#fff" stroke="#212121" stroke-linecap="round" stroke-linejoin="round" stroke-width="1"/>
        </g>
        <g id="Group_306" data-name="Group 306" transform="translate(32.587 18.039)">
          <path id="Path_302" data-name="Path 302" d="M0,.309A1.312,1.312,0,0,1,1.94.582" fill="#fff" stroke="#212121" stroke-linecap="round" stroke-linejoin="round" stroke-width="1"/>
        </g>
        <g id="Group_307" data-name="Group 307" transform="translate(34.139 4.849)">
          <path id="Path_303" data-name="Path 303" d="M0,4.085c2.1-2.83,9.163-5.847,12.028-2.83S11.911,11.249,9,13.384Z" fill="#fff" stroke="#212121" stroke-linecap="round" stroke-linejoin="round" stroke-width="1"/>
        </g>
        <g id="Group_308" data-name="Group 308" transform="translate(38.018 7.371)">
          <path id="Path_304" data-name="Path 304" d="M0,1.552A8.836,8.836,0,0,1,5.237,0" fill="#fff" stroke="#212121" stroke-linecap="round" stroke-linejoin="round" stroke-width="1"/>
        </g>
        <g id="Group_309" data-name="Group 309" transform="translate(18.233 25.216)">
          <path id="Path_305" data-name="Path 305" d="M4.655,1.838,2.3,4.093Q1.568,4.9.553,3.931T.385,2.255L2.738,0Z" fill="#fff" stroke="#212121" stroke-linecap="round" stroke-linejoin="round" stroke-width="1"/>
        </g>
        <g id="Group_310" data-name="Group 310" transform="translate(22.5 29.483)">
          <path id="Path_306" data-name="Path 306" d="M4.655,1.838,2.3,4.093Q1.568,4.9.553,3.931T.385,2.255L2.738,0Z" fill="#fff" stroke="#212121" stroke-linecap="round" stroke-linejoin="round" stroke-width="1"/>
        </g>
        <g id="Group_311" data-name="Group 311" transform="translate(11.056 31.617)">
          <path id="Path_307" data-name="Path 307" d="M3.631,6.826H0Q3.524-3.282,8.207,1.578t-5.34,9.478Z" fill="#fff" stroke="#212121" stroke-linecap="round" stroke-linejoin="round" stroke-width="1"/>
        </g>
        <g id="Group_312" data-name="Group 312" transform="translate(14.742 34.333)">
          <path id="Path_308" data-name="Path 308" d="M0,1.552Q.323-.216,1.94.03" fill="#fff" stroke="#212121" stroke-linecap="round" stroke-linejoin="round" stroke-width="1"/>
        </g>
      </g>
    </g>
    <g id="Group_314-2" data-name="Group 314" transform="translate(45.097 219.681)">
      <g id="Group_313-2" data-name="Group 313" transform="translate(-53 -224)" clip-path="url(#clip-path-3)">
        <g id="Group_300-2" data-name="Group 300" transform="translate(19.397 8.923)">
          <path id="Path_296-2" data-name="Path 296" d="M0,14.629,14.624,0l9.234,9.238L9.243,23.858Z" fill="none" stroke="#212121" stroke-linecap="round" stroke-linejoin="round" stroke-width="1"/>
        </g>
        <g id="Group_301-2" data-name="Group 301" transform="translate(30.065 25.41)">
          <path id="Path_297-2" data-name="Path 297" d="M0,6.076,1.517,12.8Q8.882,7.135,5.958,0L.42,5.677Z" fill="none" stroke="#212121" stroke-linecap="round" stroke-linejoin="round" stroke-width="1"/>
        </g>
        <g id="Group_302-2" data-name="Group 302" transform="translate(30.647 32.199)">
          <path id="Path_298-2" data-name="Path 298" d="M0,2.328,2.91,0" fill="none" stroke="#212121" stroke-linecap="round" stroke-linejoin="round" stroke-width="1"/>
        </g>
        <g id="Group_303-2" data-name="Group 303" transform="translate(30.065 15.518)">
          <path id="Path_299-2" data-name="Path 299" d="M3.3,6.595A3.3,3.3,0,1,0,0,3.3a3.3,3.3,0,0,0,3.3,3.3Z" fill="none" stroke="#212121" stroke-linecap="round" stroke-linejoin="round" stroke-width="1"/>
        </g>
        <g id="Group_304-2" data-name="Group 304" transform="translate(13.578 15.324)">
          <path id="Path_300-2" data-name="Path 300" d="M6.693,6.789,0,5.02Q5.943-2.221,13,.983l-5.888,5.4Z" fill="none" stroke="#212121" stroke-linecap="round" stroke-linejoin="round" stroke-width="1"/>
        </g>
        <g id="Group_305-2" data-name="Group 305" transform="translate(17.263 18.427)">
          <path id="Path_301-2" data-name="Path 301" d="M0,2.716,2.522,0" fill="none" stroke="#212121" stroke-linecap="round" stroke-linejoin="round" stroke-width="1"/>
        </g>
        <g id="Group_306-2" data-name="Group 306" transform="translate(32.587 18.039)">
          <path id="Path_302-2" data-name="Path 302" d="M0,.309A1.312,1.312,0,0,1,1.94.582" fill="none" stroke="#212121" stroke-linecap="round" stroke-linejoin="round" stroke-width="1"/>
        </g>
        <g id="Group_307-2" data-name="Group 307" transform="translate(34.139 4.849)">
          <path id="Path_303-2" data-name="Path 303" d="M0,4.085c2.1-2.83,9.163-5.847,12.028-2.83S11.911,11.249,9,13.384Z" fill="none" stroke="#212121" stroke-linecap="round" stroke-linejoin="round" stroke-width="1"/>
        </g>
        <g id="Group_308-2" data-name="Group 308" transform="translate(38.018 7.371)">
          <path id="Path_304-2" data-name="Path 304" d="M0,1.552A8.836,8.836,0,0,1,5.237,0" fill="none" stroke="#212121" stroke-linecap="round" stroke-linejoin="round" stroke-width="1"/>
        </g>
        <g id="Group_309-2" data-name="Group 309" transform="translate(18.233 25.216)">
          <path id="Path_305-2" data-name="Path 305" d="M4.655,1.838,2.3,4.093Q1.568,4.9.553,3.931T.385,2.255L2.738,0Z" fill="none" stroke="#212121" stroke-linecap="round" stroke-linejoin="round" stroke-width="1"/>
        </g>
        <g id="Group_310-2" data-name="Group 310" transform="translate(22.5 29.483)">
          <path id="Path_306-2" data-name="Path 306" d="M4.655,1.838,2.3,4.093Q1.568,4.9.553,3.931T.385,2.255L2.738,0Z" fill="none" stroke="#212121" stroke-linecap="round" stroke-linejoin="round" stroke-width="1"/>
        </g>
        <g id="Group_311-2" data-name="Group 311" transform="translate(11.056 31.617)">
          <path id="Path_307-2" data-name="Path 307" d="M4.346,8.17H0Q4.218-3.93,9.823,1.888T3.431,13.233Z" transform="translate(-0.955 -1.089)" fill="#e74c4c" stroke="#e74c4c" stroke-linecap="round" stroke-linejoin="round" stroke-width="1"/>
        </g>
        <g id="Group_312-2" data-name="Group 312" transform="translate(13.16 32.867)">
          <path id="Path_308-2" data-name="Path 308" d="M0,2.483Q.517-.346,3.1.048" fill="none" stroke="#fff" stroke-linecap="round" stroke-linejoin="round" stroke-width="1"/>
        </g>
      </g>
    </g>
  </g>
</svg>
