<svg xmlns="http://www.w3.org/2000/svg" xmlns:xlink="http://www.w3.org/1999/xlink" width="40" height="40" viewBox="0 0 40 40">
  <defs>
    <clipPath id="clip-path">
      <rect id="Rectangle_17" data-name="Rectangle 17" width="40" height="40"/>
    </clipPath>
    <clipPath id="clip-path-2">
      <path id="Path_153" data-name="Path 153" d="M-26-176.966H20.548V-209H-26Z" transform="translate(26 209)" fill="#fff"/>
    </clipPath>
  </defs>
  <g id="hand_hover_red_40px" clip-path="url(#clip-path)">
    <g id="Group_365" data-name="Group 365">
      <path id="Path_411" data-name="Path 411" d="M1153.441,20.3l-3.646,8.811,13.13,9.429,2.091.369.768-.7.206-1.126,1.256,1.126h1.335l.589-.759V36.288l1.07.422h1.068l.984-.92V34.069l1.117.541.752-.346.793-.764v-.959l-.232-1.252-2.733-2.172-3.2-3.2-1.754-2.624-6.731-2.369-4.963-.292Z" transform="translate(-1144)" fill="#fff"/>
      <g id="Group_166" data-name="Group 166" transform="translate(22.726 221.5)">
        <g id="Group_165" data-name="Group 165" transform="translate(-26 -209)" clip-path="url(#clip-path-2)">
          <g id="Group_151" data-name="Group 151" transform="translate(18.959 7.322)">
            <path id="Path_139" data-name="Path 139" d="M14.889,2.448a4.219,4.219,0,0,1-3.3.215C10.325,2.081,10.075-.577,2.865.114.582,1.6-.191,3.87.039,4.86a1.678,1.678,0,0,0,2.826.6A4.06,4.06,0,0,0,4.251,3.031q2.156.848,3.082.405c.545,1.614,3.4,5.456,8.1,8.332q2.252-.647,2.74-1.621Z" fill="#fff" stroke="#212121" stroke-linecap="round" stroke-linejoin="round" stroke-width="1"/>
          </g>
          <g id="Group_152" data-name="Group 152" transform="translate(33.473 7.061)">
            <path id="Path_140" data-name="Path 140" d="M4.476,0,9.153,10.929,4.677,12.814,0,1.885Z" fill="#fff" stroke="#212121" stroke-linecap="round" stroke-linejoin="round" stroke-width="1"/>
          </g>
          <g id="Group_153" data-name="Group 153" transform="translate(3.923 5.361)">
            <path id="Path_141" data-name="Path 141" d="M4.61,0,0,10.929l4.412,1.885L9.022,1.885Z" fill="#fff" stroke="#212121" stroke-linecap="round" stroke-linejoin="round" stroke-width="1"/>
          </g>
          <g id="Group_154" data-name="Group 154" transform="translate(10.46 17.521)">
            <path id="Path_142" data-name="Path 142" d="M.543,3.931c.748.551,1.99.174,2.773-.841S4.128.8,3.379.254,1.39.079.606,1.1-.2,3.38.543,3.931Z" fill="#fff" stroke="#212121" stroke-linecap="round" stroke-linejoin="round" stroke-width="1"/>
          </g>
          <g id="Group_155" data-name="Group 155" transform="translate(13.468 19.221)">
            <path id="Path_143" data-name="Path 143" d="M.935,4.365C1.8,4.692,2.864,4,3.323,2.815S3.456.408,2.6.081.666.448.208,1.631.075,4.038.935,4.365Z" fill="#fff" stroke="#212121" stroke-linecap="round" stroke-linejoin="round" stroke-width="1"/>
          </g>
          <g id="Group_156" data-name="Group 156" transform="translate(16.344 21.313)">
            <path id="Path_144" data-name="Path 144" d="M.977,4.285c.778.2,1.644-.6,1.935-1.774S2.808.225,2.03.03.386.629.1,1.8.2,4.09.977,4.285Z" fill="#fff" stroke="#212121" stroke-linecap="round" stroke-linejoin="round" stroke-width="1"/>
          </g>
          <g id="Group_157" data-name="Group 157" transform="translate(19.09 23.012)">
            <path id="Path_145" data-name="Path 145" d="M1.177,3.792c.65,0,1.177-.849,1.177-1.9S1.827,0,1.177,0,0,.849,0,1.9.527,3.792,1.177,3.792Z" fill="#fff" stroke="#212121" stroke-linecap="round" stroke-linejoin="round" stroke-width="1"/>
          </g>
          <g id="Group_158" data-name="Group 158" transform="translate(9.022 16.475)">
            <path id="Path_146" data-name="Path 146" d="M0,0,2.223,1.961" fill="#fff" stroke="#212121" stroke-linecap="round" stroke-linejoin="round" stroke-width="1"/>
          </g>
          <g id="Group_159" data-name="Group 159" transform="translate(12.814 7.845)">
            <path id="Path_147" data-name="Path 147" d="M0,0A30.1,30.1,0,0,0,7.714.581" fill="#fff" stroke="#212121" stroke-linecap="round" stroke-linejoin="round" stroke-width="1"/>
          </g>
          <g id="Group_160" data-name="Group 160" transform="translate(28.373 6.668)">
            <path id="Path_148" data-name="Path 148" d="M0,1.114a4.95,4.95,0,0,0,2.055-.9A1.19,1.19,0,0,1,3.893,1.45,3.561,3.561,0,0,1,2.81,3.53" fill="#fff" stroke="#212121" stroke-linecap="round" stroke-linejoin="round" stroke-width="1"/>
          </g>
          <g id="Group_161" data-name="Group 161" transform="translate(21.443 24.974)">
            <path id="Path_149" data-name="Path 149" d="M0,.7a13.982,13.982,0,0,0,2.162.716A1.284,1.284,0,0,0,3.792,0" fill="#fff" stroke="#212121" stroke-linecap="round" stroke-linejoin="round" stroke-width="1"/>
          </g>
          <g id="Group_162" data-name="Group 162" transform="translate(23.079 22.496)">
            <path id="Path_150" data-name="Path 150" d="M0,0,3.333,3.109a1.578,1.578,0,0,0,1.728-.23q.729-.626.1-2.071" fill="#fff" stroke="#212121" stroke-linecap="round" stroke-linejoin="round" stroke-width="1"/>
          </g>
          <g id="Group_163" data-name="Group 163" transform="translate(25.409 20.338)">
            <path id="Path_151" data-name="Path 151" d="M0,0,3.661,3.8a2.347,2.347,0,0,0,2.213-.461q.839-.765.1-2.36" fill="#fff" stroke="#212121" stroke-linecap="round" stroke-linejoin="round" stroke-width="1"/>
          </g>
          <g id="Group_164" data-name="Group 164" transform="translate(28.243 18.175)">
            <path id="Path_152" data-name="Path 152" d="M0,0,3.868,3.842a1.777,1.777,0,0,0,1.989-.694Q6.7,2.124,5.665.667" fill="none" stroke="#212121" stroke-linecap="round" stroke-linejoin="round" stroke-width="1"/>
          </g>
        </g>
      </g>
    </g>
    <g id="Group_166-2" data-name="Group 166" transform="translate(22.726 221.5)">
      <g id="Group_151-2" data-name="Group 151" transform="translate(-7.041 -201.678)">
        <path id="Path_139-2" data-name="Path 139" d="M14.889,2.448a4.219,4.219,0,0,1-3.3.215C10.325,2.081,10.075-.577,2.865.114.582,1.6-.191,3.87.039,4.86a1.678,1.678,0,0,0,2.826.6A4.06,4.06,0,0,0,4.251,3.031q2.156.848,3.082.405c.545,1.614,3.4,5.456,8.1,8.332q2.252-.647,2.74-1.621Z" fill="none" stroke="#212121" stroke-linecap="round" stroke-linejoin="round" stroke-width="1"/>
      </g>
      <g id="Group_152-2" data-name="Group 152" transform="translate(7.473 -201.939)">
        <path id="Path_140-2" data-name="Path 140" d="M4.476,0,9.153,10.929,4.677,12.814,0,1.885Z" fill="#e74c4c" stroke="#e74c4c" stroke-linecap="round" stroke-linejoin="round" stroke-width="1"/>
      </g>
      <g id="Group_154-2" data-name="Group 154" transform="translate(-15.54 -191.479)">
        <path id="Path_142-2" data-name="Path 142" d="M.543,3.931c.748.551,1.99.174,2.773-.841S4.128.8,3.379.254,1.39.079.606,1.1-.2,3.38.543,3.931Z" fill="none" stroke="#212121" stroke-linecap="round" stroke-linejoin="round" stroke-width="1"/>
      </g>
      <g id="Group_155-2" data-name="Group 155" transform="translate(-12.532 -189.779)">
        <path id="Path_143-2" data-name="Path 143" d="M.935,4.365C1.8,4.692,2.864,4,3.323,2.815S3.456.408,2.6.081.666.448.208,1.631.075,4.038.935,4.365Z" fill="none" stroke="#212121" stroke-linecap="round" stroke-linejoin="round" stroke-width="1"/>
      </g>
      <g id="Group_156-2" data-name="Group 156" transform="translate(-9.656 -187.687)">
        <path id="Path_144-2" data-name="Path 144" d="M.977,4.285c.778.2,1.644-.6,1.935-1.774S2.808.225,2.03.03.386.629.1,1.8.2,4.09.977,4.285Z" fill="none" stroke="#212121" stroke-linecap="round" stroke-linejoin="round" stroke-width="1"/>
      </g>
      <g id="Group_157-2" data-name="Group 157" transform="translate(-6.91 -185.988)">
        <path id="Path_145-2" data-name="Path 145" d="M1.177,3.792c.65,0,1.177-.849,1.177-1.9S1.827,0,1.177,0,0,.849,0,1.9.527,3.792,1.177,3.792Z" fill="none" stroke="#212121" stroke-linecap="round" stroke-linejoin="round" stroke-width="1"/>
      </g>
      <g id="Group_158-2" data-name="Group 158" transform="translate(-16.978 -192.525)">
        <path id="Path_146-2" data-name="Path 146" d="M0,0,2.223,1.961" fill="none" stroke="#212121" stroke-linecap="round" stroke-linejoin="round" stroke-width="1"/>
      </g>
      <g id="Group_159-2" data-name="Group 159" transform="translate(-13.186 -201.155)">
        <path id="Path_147-2" data-name="Path 147" d="M0,0A30.1,30.1,0,0,0,7.714.581" fill="none" stroke="#212121" stroke-linecap="round" stroke-linejoin="round" stroke-width="1"/>
      </g>
      <g id="Group_160-2" data-name="Group 160" transform="translate(2.373 -202.332)">
        <path id="Path_148-2" data-name="Path 148" d="M0,1.114a4.95,4.95,0,0,0,2.055-.9A1.19,1.19,0,0,1,3.893,1.45,3.561,3.561,0,0,1,2.81,3.53" fill="none" stroke="#212121" stroke-linecap="round" stroke-linejoin="round" stroke-width="1"/>
      </g>
      <g id="Group_161-2" data-name="Group 161" transform="translate(-4.557 -184.026)">
        <path id="Path_149-2" data-name="Path 149" d="M0,.7a13.982,13.982,0,0,0,2.162.716A1.284,1.284,0,0,0,3.792,0" fill="none" stroke="#212121" stroke-linecap="round" stroke-linejoin="round" stroke-width="1"/>
      </g>
      <g id="Group_162-2" data-name="Group 162" transform="translate(-2.921 -186.504)">
        <path id="Path_150-2" data-name="Path 150" d="M0,0,3.333,3.109a1.578,1.578,0,0,0,1.728-.23q.729-.626.1-2.071" fill="none" stroke="#212121" stroke-linecap="round" stroke-linejoin="round" stroke-width="1"/>
      </g>
      <g id="Group_163-2" data-name="Group 163" transform="translate(-0.591 -188.662)">
        <path id="Path_151-2" data-name="Path 151" d="M0,0,3.661,3.8a2.347,2.347,0,0,0,2.213-.461q.839-.765.1-2.36" fill="none" stroke="#212121" stroke-linecap="round" stroke-linejoin="round" stroke-width="1"/>
      </g>
      <g id="Group_164-2" data-name="Group 164" transform="translate(2.243 -190.825)">
        <path id="Path_152-2" data-name="Path 152" d="M0,0,3.868,3.842a1.777,1.777,0,0,0,1.989-.694Q6.7,2.124,5.665.667" fill="none" stroke="#212121" stroke-linecap="round" stroke-linejoin="round" stroke-width="1"/>
      </g>
      <g id="Group_153-2" data-name="Group 153" transform="translate(-22.078 -203.639)">
        <path id="Path_141-2" data-name="Path 141" d="M4.61,0,0,10.929l4.412,1.885L9.022,1.885Z" fill="#e74c4c" stroke="#e74c4c" stroke-linecap="round" stroke-linejoin="round" stroke-width="1"/>
      </g>
      <path id="Path_153-2" data-name="Path 153" d="M-26-176.966H20.548V-209H-26Z" fill="none"/>
    </g>
  </g>
</svg>
