<svg xmlns="http://www.w3.org/2000/svg" xmlns:xlink="http://www.w3.org/1999/xlink" width="40" height="40" viewBox="0 0 40 40">
  <defs>
    <clipPath id="clip-path">
      <rect id="Rectangle_14" data-name="Rectangle 14" width="40" height="40"/>
    </clipPath>
  </defs>
  <g id="ensurance_hover_red_40px" clip-path="url(#clip-path)">
    <g id="Group_136" data-name="Group 136" transform="translate(53.24 247.237)">
      <g id="Group_134" data-name="Group 134" transform="translate(-22.929 -215.606) rotate(180)">
        <path id="Path_126" data-name="Path 126" d="M0,10.358V31.074H24.837V0H10.664" fill="#fff" stroke="#212121" stroke-linecap="round" stroke-linejoin="round" stroke-width="1"/>
      </g>
      <g id="Group_125" data-name="Group 125" transform="translate(-36.877 -217.073)">
        <path id="Path_117" data-name="Path 117" d="M4.139,0,0,7.124,2.991,6.83l.944,2.461L7.592,2.108" fill="#fff" stroke="#212121" stroke-linecap="round" stroke-linejoin="round" stroke-width="1"/>
      </g>
      <g id="Group_126" data-name="Group 126" transform="translate(-18.745 -207.782) rotate(180)">
        <path id="Path_118" data-name="Path 118" d="M4.139,9.291,0,2.167l2.991.294L3.935,0,7.592,7.182" fill="#fff" stroke="#212121" stroke-linecap="round" stroke-linejoin="round" stroke-width="1"/>
      </g>
      <g id="Group_127" data-name="Group 127" transform="translate(-38.799 -243.85)">
        <path id="Path_119" data-name="Path 119" d="M2.444,5.119v1.5H0V3.15L3.264,0,6.529,3.15V6.624H4.087v-1.5Z" fill="#fff" stroke="#212121" stroke-linecap="round" stroke-linejoin="round" stroke-width="1"/>
      </g>
      <g id="Group_128" data-name="Group 128" transform="translate(-43.476 -234.393)">
        <path id="Path_120" data-name="Path 120" d="M0,.278H15.849" transform="translate(0 -0.278)" fill="#fff" stroke="#212121" stroke-linecap="round" stroke-linejoin="round" stroke-width="1"/>
      </g>
      <g id="Group_129" data-name="Group 129" transform="translate(-43.476 -232.284)">
        <path id="Path_121" data-name="Path 121" d="M0,.278H15.849" transform="translate(0 -0.278)" fill="#fff" stroke="#212121" stroke-linecap="round" stroke-linejoin="round" stroke-width="1"/>
      </g>
      <g id="Group_130" data-name="Group 130" transform="translate(-43.476 -230.176)">
        <path id="Path_122" data-name="Path 122" d="M0,.278H15.849" transform="translate(0 -0.278)" fill="#fff" stroke="#212121" stroke-linecap="round" stroke-linejoin="round" stroke-width="1"/>
      </g>
      <g id="Group_131" data-name="Group 131" transform="translate(-43.476 -223.638)">
        <path id="Path_123" data-name="Path 123" d="M0,.278H6.6" transform="translate(0 -0.278)" fill="#fff" stroke="#212121" stroke-linecap="round" stroke-linejoin="round" stroke-width="1"/>
      </g>
      <g id="Group_132" data-name="Group 132" transform="translate(-43.476 -221.53)">
        <path id="Path_124" data-name="Path 124" d="M0,.278H6.6" transform="translate(0 -0.278)" fill="#fff" stroke="#212121" stroke-linecap="round" stroke-linejoin="round" stroke-width="1"/>
      </g>
      <g id="Group_133" data-name="Group 133" transform="translate(-43.476 -219.422)">
        <path id="Path_125" data-name="Path 125" d="M0,.278H6.6" transform="translate(0 -0.278)" fill="#fff" stroke="#212121" stroke-linecap="round" stroke-linejoin="round" stroke-width="1"/>
      </g>
      <g id="Group_124" data-name="Group 124" transform="translate(-34.385 -228.072)">
        <path id="Path_116" data-name="Path 116" d="M6.553,13.108A6.554,6.554,0,1,0,0,6.554a6.554,6.554,0,0,0,6.553,6.554Z" fill="#fff" stroke="#212121" stroke-linecap="round" stroke-linejoin="round" stroke-width="1"/>
      </g>
      <g id="Group_123" data-name="Group 123" transform="translate(-32.277 -225.964)">
        <path id="Path_115" data-name="Path 115" d="M4.445,8.891A4.446,4.446,0,1,0,0,4.446,4.446,4.446,0,0,0,4.445,8.891Z" fill="#fff" stroke="#212121" stroke-linecap="round" stroke-linejoin="round" stroke-width="1"/>
      </g>
    </g>
    <g id="Group_134-2" data-name="Group 134" transform="translate(30.31 31.631) rotate(180)">
      <path id="Path_126-2" data-name="Path 126" d="M0,10.358V31.074H24.837V0H10.664" fill="none" stroke="#212121" stroke-linecap="round" stroke-linejoin="round" stroke-width="1"/>
    </g>
    <g id="Group_136-2" data-name="Group 136" transform="translate(53.24 247.237)">
      <g id="Group_124-2" data-name="Group 124" transform="translate(-34.385 -228.072)">
        <path id="Path_116-2" data-name="Path 116" d="M6.553,13.108A6.554,6.554,0,1,0,0,6.554a6.554,6.554,0,0,0,6.553,6.554Z" fill="none" stroke="#e74c4c" stroke-linecap="round" stroke-linejoin="round" stroke-width="1"/>
      </g>
      <g id="Group_123-2" data-name="Group 123" transform="translate(-32.277 -225.964)">
        <path id="Path_115-2" data-name="Path 115" d="M4.445,8.891A4.446,4.446,0,1,0,0,4.446,4.446,4.446,0,0,0,4.445,8.891Z" fill="#e74c4c" stroke="#e74c4c" stroke-linecap="round" stroke-linejoin="round" stroke-width="1"/>
      </g>
      <g id="Group_125-2" data-name="Group 125" transform="translate(-36.877 -217.073)">
        <path id="Path_117-2" data-name="Path 117" d="M4.139,0,0,7.124,2.991,6.83l.944,2.461L7.592,2.108" fill="none" stroke="#e74c4c" stroke-linecap="round" stroke-linejoin="round" stroke-width="1"/>
      </g>
      <g id="Group_126-2" data-name="Group 126" transform="translate(-18.745 -207.782) rotate(180)">
        <path id="Path_118-2" data-name="Path 118" d="M4.139,9.291,0,2.167l2.991.294L3.935,0,7.592,7.182" fill="none" stroke="#e74c4c" stroke-linecap="round" stroke-linejoin="round" stroke-width="1"/>
      </g>
      <g id="Group_127-2" data-name="Group 127" transform="translate(-38.799 -243.85)">
        <path id="Path_119-2" data-name="Path 119" d="M2.444,5.119v1.5H0V3.15L3.264,0,6.529,3.15V6.624H4.087v-1.5Z" fill="#e74c4c" stroke="#e74c4c" stroke-linecap="round" stroke-linejoin="round" stroke-width="1"/>
      </g>
      <g id="Group_128-2" data-name="Group 128" transform="translate(-43.476 -234.393)">
        <path id="Path_120-2" data-name="Path 120" d="M0,.278H15.849" transform="translate(0 -0.278)" fill="none" stroke="#212121" stroke-linecap="round" stroke-linejoin="round" stroke-width="1"/>
      </g>
      <g id="Group_129-2" data-name="Group 129" transform="translate(-43.476 -232.284)">
        <path id="Path_121-2" data-name="Path 121" d="M0,.278H15.849" transform="translate(0 -0.278)" fill="none" stroke="#212121" stroke-linecap="round" stroke-linejoin="round" stroke-width="1"/>
      </g>
      <g id="Group_130-2" data-name="Group 130" transform="translate(-43.476 -230.176)">
        <path id="Path_122-2" data-name="Path 122" d="M0,.278H15.849" transform="translate(0 -0.278)" fill="none" stroke="#212121" stroke-linecap="round" stroke-linejoin="round" stroke-width="1"/>
      </g>
      <g id="Group_131-2" data-name="Group 131" transform="translate(-43.476 -223.638)">
        <path id="Path_123-2" data-name="Path 123" d="M0,.278H6.6" transform="translate(0 -0.278)" fill="none" stroke="#212121" stroke-linecap="round" stroke-linejoin="round" stroke-width="1"/>
      </g>
      <g id="Group_132-2" data-name="Group 132" transform="translate(-43.476 -221.53)">
        <path id="Path_124-2" data-name="Path 124" d="M0,.278H6.6" transform="translate(0 -0.278)" fill="none" stroke="#212121" stroke-linecap="round" stroke-linejoin="round" stroke-width="1"/>
      </g>
      <g id="Group_133-2" data-name="Group 133" transform="translate(-43.476 -219.422)">
        <path id="Path_125-2" data-name="Path 125" d="M0,.278H6.6" transform="translate(0 -0.278)" fill="none" stroke="#212121" stroke-linecap="round" stroke-linejoin="round" stroke-width="1"/>
      </g>
      <path id="Path_127" data-name="Path 127" d="M-58-206.237H-8.479V-248H-58Z" fill="none"/>
    </g>
  </g>
</svg>
