<?xml version="1.0" encoding="utf-8"?>
<!-- Generator: Adobe Illustrator 21.1.0, SVG Export Plug-In . SVG Version: 6.00 Build 0)  -->
<svg version="1.1" id="Layer_1" xmlns="http://www.w3.org/2000/svg" xmlns:xlink="http://www.w3.org/1999/xlink" x="0px" y="0px"
	 viewBox="0 0 205.9 50.8" style="enable-background:new 0 0 205.9 50.8;" xml:space="preserve">
<style type="text/css">
	.st0{fill:#242F62;}
</style>
<g>
	<g>
		<g>
			<path class="st0" d="M75,1.3h9.5c5.3,0,7.3,2.7,7.3,5.6c0,2.5-1.3,4-2.8,4.7c1.5,0.6,3.4,2.1,3.4,5c0,3.7-2.9,6.5-7.6,6.5h-9.9
				L75,1.3L75,1.3z M83.9,9.8c2.2,0,3.2-1,3.2-2.6s-1.2-2.4-3-2.4h-4.5v5H83.9z M79.6,19.4h4.3c2.6,0,3.7-1.1,3.7-3
				c0-1.8-1.1-2.9-3.7-2.9h-4.2v5.9H79.6z"/>
			<path class="st0" d="M109.7,14.8c0,5-3,8.6-8.2,8.6c-5.1,0-8-3.6-8-8.5c0-5.1,3.1-8.6,8.2-8.6C106.5,6.3,109.7,9.7,109.7,14.8z
				 M98.1,14.8c0,3.2,1.4,5,3.5,5c2.2,0,3.5-1.9,3.5-5c0-3.4-1.3-5-3.5-5C99.5,9.8,98.1,11.4,98.1,14.8z"/>
			<path class="st0" d="M116,0v8.7c0.7-1.1,2-2.3,4.7-2.3c3,0,5.5,1.8,5.5,6.3v10.5h-4.5v-10c0-2.1-0.8-3.3-2.7-3.3
				c-2.5,0-3,1.9-3,4.4V23h-4.5V0H116z"/>
			<path class="st0" d="M132,15.8c0,2.1,1,4,3.3,4c1.9,0,2.4-0.8,2.9-1.7h4.5c-0.6,2-2.4,5.3-7.5,5.3c-5.4,0-7.7-4-7.7-8.3
				c0-5.1,2.6-8.8,7.9-8.8c5.6,0,7.5,4.1,7.5,8.2c0,0.6,0,0.9-0.1,1.4L132,15.8L132,15.8z M138.3,13c0-1.9-0.8-3.5-3-3.5
				c-2.1,0-3,1.5-3.2,3.5H138.3z"/>
			<path class="st0" d="M144.2,10.9c0-1.4,0-2.8,0-4.2h4.3c0.1,0.4,0.2,1.3,0.2,2c0.8-1.2,2.1-2.3,4.5-2.3c2.3,0,3.6,1.2,4.2,2.5
				c1-1.3,2.4-2.5,5.1-2.5c2.8,0,5.2,1.8,5.2,6v10.7h-4.4V12.8c0-1.5-0.5-2.9-2.4-2.9s-2.7,1.3-2.7,3.8v9.4h-4.5v-10
				c0-1.7-0.4-3.1-2.3-3.1c-1.8,0-2.7,1.1-2.7,3.9V23h-4.5L144.2,10.9L144.2,10.9z"/>
			<path class="st0" d="M169.3,4V0h4.5v4H169.3z M169.3,6.7h4.5v16.4h-4.5V6.7z"/>
			<path class="st0" d="M189.5,18.8c0,1.6,0.1,3.9,0.2,4.2h-4.3c-0.1-0.3-0.2-1.2-0.2-1.6c-0.6,0.9-1.7,2-4.6,2
				c-3.9,0-5.6-2.6-5.6-5.1c0-3.7,3-5.5,7.8-5.5h2.3v-1c0-1.2-0.4-2.3-2.5-2.3c-1.9,0-2.3,0.8-2.5,2h-4.3c0.2-2.9,2-5.2,7-5.2
				c4.4,0,6.8,1.7,6.8,5.7L189.5,18.8L189.5,18.8z M185.1,15.6h-1.8c-2.7,0-3.8,0.9-3.8,2.4c0,1.2,0.7,2.2,2.4,2.2
				c2.9,0,3.2-2,3.2-4.2L185.1,15.6L185.1,15.6z"/>
			<path class="st0" d="M191.2,10.8c0-1.4,0-2.9,0-4.1h4.4c0.1,0.4,0.2,1.6,0.2,2.1c0.5-1,1.9-2.5,4.7-2.5c3.3,0,5.4,2.2,5.4,6.3V23
				h-4.5v-9.9c0-1.9-0.6-3.2-2.6-3.2c-1.9,0-3,1.1-3,4V23h-4.5L191.2,10.8L191.2,10.8z"/>
			<path class="st0" d="M90,41H79.6v5.5h11.5l-0.6,3.9H75V28.6h15.4v3.9H79.5v4.6h10.4L90,41L90,41z"/>
			<path class="st0" d="M96,45.5c0.3,1.3,1.4,2.1,3.1,2.1s2.3-0.6,2.3-1.6s-0.7-1.5-3-2c-5.3-1.3-6.2-3-6.2-5.3c0-2.4,1.7-5,6.6-5
				c5,0,6.7,2.7,6.8,4.9h-4.3c-0.2-0.6-0.6-1.7-2.7-1.7c-1.5,0-2,0.7-2,1.4c0,0.8,0.5,1.2,3.2,1.8c5.5,1.3,6.3,3.1,6.3,5.5
				c0,2.7-2.1,5.2-7,5.2c-5,0-7-2.4-7.4-5.3H96z"/>
			<path class="st0" d="M107,34h2.5v-4.4h4.5V34h3.2v3.4H114v8.1c0,1.2,0.4,1.7,1.7,1.7c0.3,0,0.7,0,1,0v3.1c-0.9,0.3-2.1,0.3-3,0.3
				c-3.2,0-4.2-1.7-4.2-4.6v-8.6H107V34z"/>
			<path class="st0" d="M132.3,46.2c0,1.6,0.1,3.9,0.2,4.2h-4.3c-0.1-0.3-0.2-1.2-0.2-1.6c-0.6,0.9-1.7,2-4.6,2
				c-3.9,0-5.6-2.6-5.6-5.1c0-3.7,3-5.5,7.8-5.5h2.3v-1c0-1.2-0.4-2.3-2.5-2.3c-1.9,0-2.3,0.8-2.5,2h-4.3c0.2-2.9,2-5.2,7-5.2
				c4.4,0,6.8,1.7,6.8,5.7v6.8H132.3z M127.9,42.9h-1.8c-2.7,0-3.8,0.9-3.8,2.4c0,1.2,0.7,2.2,2.4,2.2c2.9,0,3.2-2,3.2-4.2
				L127.9,42.9L127.9,42.9z"/>
			<path class="st0" d="M133.6,34h2.5v-4.4h4.5V34h3.2v3.4h-3.2v8.1c0,1.2,0.4,1.7,1.7,1.7c0.3,0,0.7,0,1,0v3.1
				c-0.9,0.3-2.1,0.3-3,0.3c-3.2,0-4.2-1.7-4.2-4.6v-8.6h-2.5V34z"/>
			<path class="st0" d="M148.2,43.2c0,2.1,1,4,3.3,4c1.9,0,2.4-0.8,2.9-1.7h4.5c-0.6,2-2.4,5.3-7.5,5.3c-5.4,0-7.7-4-7.7-8.3
				c0-5.1,2.6-8.8,7.9-8.8c5.6,0,7.5,4.1,7.5,8.2c0,0.6,0,0.9-0.1,1.4L148.2,43.2L148.2,43.2z M154.5,40.4c0-1.9-0.8-3.5-3-3.5
				c-2.1,0-3,1.5-3.2,3.5H154.5z"/>
			<path class="st0" d="M164.2,45.5c0.3,1.3,1.4,2.1,3.1,2.1s2.3-0.6,2.3-1.6s-0.7-1.5-3-2c-5.3-1.3-6.2-3-6.2-5.3
				c0-2.4,1.7-5,6.6-5c5,0,6.7,2.7,6.8,4.9h-4.3c-0.2-0.6-0.6-1.7-2.7-1.7c-1.5,0-2,0.7-2,1.4c0,0.8,0.5,1.2,3.2,1.8
				c5.5,1.3,6.3,3.1,6.3,5.5c0,2.7-2.1,5.2-7,5.2c-5,0-7-2.4-7.4-5.3H164.2z"/>
		</g>
	</g>
	<g>
		<path class="st0" d="M30,25.8c1.2,1.3,2.1,2.9,2.3,4.8c0.2-1.8,1.1-3.5,2.3-4.8c-1.2-1.3-2.1-2.9-2.3-4.8
			C32,22.9,31.2,24.5,30,25.8z"/>
		<path class="st0" d="M63.1,1.3H1.5C0.7,1.3,0,2,0,2.8v46c0,0.8,0.7,1.5,1.5,1.5h61.6c0.8,0,1.5-0.7,1.5-1.5v-46
			C64.6,2,63.9,1.3,63.1,1.3z M54.3,16.8v6.5h-5.2v-6.5h-8.5c-1.8,0-3.2,1.4-3.2,3.2s1.4,3.2,3.2,3.2H44v5.2h-3.4
			c-1.8,0-3.2,1.4-3.2,3.2c0,1.8,1.4,3.2,3.2,3.2h8.5v-6.5h5.2v6.5V40H40.6c-4.3,0-7.8-3.2-8.3-7.4c-0.5,4.1-4,7.4-8.3,7.4H10.3
			v-5.2v-6.5h5.2v6.5H24c1.8,0,3.2-1.4,3.2-3.2c0-1.8-1.4-3.2-3.2-3.2h-3.4v-5.2H24c1.8,0,3.2-1.4,3.2-3.2s-1.4-3.2-3.2-3.2h-8.5
			v6.5h-5.2v-6.5v-5.2H24c4.3,0,7.8,3.2,8.3,7.4c0.5-4.1,4-7.4,8.3-7.4h13.7V16.8z"/>
	</g>
</g>
</svg>
