<svg xmlns="http://www.w3.org/2000/svg" xmlns:xlink="http://www.w3.org/1999/xlink" width="40" height="40" viewBox="0 0 40 40">
  <defs>
    <clipPath id="clip-path">
      <rect id="Rectangle_44" data-name="Rectangle 44" width="40" height="40"/>
    </clipPath>
    <clipPath id="clip-path-2">
      <path id="Path_157" data-name="Path 157" d="M-11-196.949H31.919V-232H-11Z" transform="translate(11 232)" fill="#fff"/>
    </clipPath>
    <clipPath id="clip-path-3">
      <path id="Path_160" data-name="Path 160" d="M164.455-111.854,146-114" transform="translate(-146 114)" fill="#fff"/>
    </clipPath>
    <clipPath id="clip-path-6">
      <path id="Path_165" data-name="Path 165" d="M49-195.565V-200" transform="translate(-49 200)" fill="#fff"/>
    </clipPath>
    <clipPath id="clip-path-7">
      <path id="Path_164" data-name="Path 164" d="M-11-196.949H289V-232H-11Z" transform="translate(11 232)" fill="#fff"/>
    </clipPath>
    <clipPath id="clip-path-9">
      <path id="Path_171" data-name="Path 171" d="M242.072-102.5,242-95.847" transform="translate(-242 102.5)" fill="#fff"/>
    </clipPath>
    <clipPath id="clip-path-12">
      <path id="Path_176" data-name="Path 176" d="M249.572-91.855a.572.572,0,0,0,.572-.572.572.572,0,0,0-.572-.572.572.572,0,0,0-.572.572A.572.572,0,0,0,249.572-91.855Z" transform="translate(-249 93)" fill="#212121"/>
    </clipPath>
    <clipPath id="clip-path-13">
      <path id="Path_175" data-name="Path 175" d="M-11-196.949H31.919V-232H-11Z" transform="translate(11 232)" fill="#212121"/>
    </clipPath>
    <clipPath id="clip-path-14">
      <path id="Path_179" data-name="Path 179" d="M228.572-94.855a.572.572,0,0,0,.572-.572.572.572,0,0,0-.572-.572.572.572,0,0,0-.572.572A.572.572,0,0,0,228.572-94.855Z" transform="translate(-228 96)" fill="#212121"/>
    </clipPath>
    <clipPath id="clip-path-16">
      <path id="Path_185" data-name="Path 185" d="M172.572-106.855a.572.572,0,0,0,.572-.572.572.572,0,0,0-.572-.572.572.572,0,0,0-.572.572.572.572,0,0,0,.572.572Z" transform="translate(-172 108)" fill="#fff"/>
    </clipPath>
    <clipPath id="clip-path-19">
      <path id="Path_195" data-name="Path 195" d="M96.352-149.617H93.007Q92.775-160,99.973-160t6.733,10.383h-3.1v7.676q-.765,1.826-3.637,1.826t-3.621-1.826Z" transform="translate(-93 160)" fill="#fff"/>
    </clipPath>
    <clipPath id="clip-path-22">
      <path id="Path_200" data-name="Path 200" d="M122.861-204.991a2.935,2.935,0,0,0,2.861-3,2.935,2.935,0,0,0-2.861-3A2.935,2.935,0,0,0,120-208a2.935,2.935,0,0,0,2.861,3.009Z" transform="translate(-120 211)" fill="#fff"/>
    </clipPath>
    <clipPath id="clip-path-25">
      <path id="Path_182" data-name="Path 182" d="M190.572-99.855a.572.572,0,0,0,.572-.572.572.572,0,0,0-.572-.572.572.572,0,0,0-.572.572A.572.572,0,0,0,190.572-99.855Z" transform="translate(-190 101)" fill="#212121"/>
    </clipPath>
    <clipPath id="clip-path-27">
      <path id="Path_210" data-name="Path 210" d="M-11-196.918H31.958V-232H-11Z" transform="translate(11 232)" fill="none"/>
    </clipPath>
    <clipPath id="clip-path-28">
      <path id="Path_213" data-name="Path 213" d="M164.472-111.852,146-114" transform="translate(-146 114)" fill="none"/>
    </clipPath>
    <clipPath id="clip-path-31">
      <path id="Path_218" data-name="Path 218" d="M49-195.561V-200" transform="translate(-49 200)" fill="none"/>
    </clipPath>
    <clipPath id="clip-path-32">
      <path id="Path_217" data-name="Path 217" d="M-11-196.918H289V-232H-11Z" transform="translate(11 232)" fill="none"/>
    </clipPath>
    <clipPath id="clip-path-34">
      <path id="Path_224" data-name="Path 224" d="M242.072-102.5,242-95.842" transform="translate(-242 102.5)" fill="none"/>
    </clipPath>
    <clipPath id="clip-path-37">
      <path id="Path_229" data-name="Path 229" d="M249.573-91.854a.573.573,0,0,0,.573-.573.573.573,0,0,0-.573-.573.573.573,0,0,0-.573.573A.573.573,0,0,0,249.573-91.854Z" transform="translate(-249 93)" fill="none"/>
    </clipPath>
    <clipPath id="clip-path-39">
      <path id="Path_232" data-name="Path 232" d="M228.573-94.854a.573.573,0,0,0,.573-.573.573.573,0,0,0-.573-.573.573.573,0,0,0-.573.573.573.573,0,0,0,.573.573Z" transform="translate(-228 96)" fill="none"/>
    </clipPath>
    <clipPath id="clip-path-41">
      <path id="Path_235" data-name="Path 235" d="M190.573-99.854a.573.573,0,0,0,.573-.573.573.573,0,0,0-.573-.573.573.573,0,0,0-.573.573A.573.573,0,0,0,190.573-99.854Z" transform="translate(-190 101)" fill="none"/>
    </clipPath>
    <clipPath id="clip-path-43">
      <path id="Path_238" data-name="Path 238" d="M172.573-106.854a.573.573,0,0,0,.573-.573.573.573,0,0,0-.573-.573.573.573,0,0,0-.573.573A.573.573,0,0,0,172.573-106.854Z" transform="translate(-172 108)" fill="none"/>
    </clipPath>
  </defs>
  <g id="virtual_hover_red_40px" clip-path="url(#clip-path)">
    <g id="Group_211" data-name="Group 211" transform="translate(9.54 238.75)">
      <g id="Group_170" data-name="Group 170" transform="translate(-11 -232)" clip-path="url(#clip-path-2)">
        <g id="Group_167" data-name="Group 167" transform="translate(2.146 2.432)">
          <path id="Path_154" data-name="Path 154" d="M0,0Q15.825,6.412,38.771,0V24.321Q23.84,17.9,0,24.321Z" fill="#fff" stroke="#212121" stroke-linecap="round" stroke-linejoin="round" stroke-width="1"/>
        </g>
        <g id="Group_168" data-name="Group 168" transform="translate(21.746 15.308)">
          <path id="Path_155" data-name="Path 155" d="M2.733,0,19.171,1.332v10.4a51.2,51.2,0,0,0-8.094-2.615A57.075,57.075,0,0,0,.953,8.194Q-1.614,8.194,2.733,0Z" fill="#fff" stroke="#212121" stroke-linecap="round" stroke-linejoin="round" stroke-width="1"/>
        </g>
        <g id="Group_169" data-name="Group 169" transform="translate(6.152 9.013)">
          <path id="Path_156" data-name="Path 156" d="M2.432,3.29H4.864C4.864,1.473,3.775,0,2.432,0S0,1.473,0,3.29Z" fill="#fff" stroke="#212121" stroke-linecap="round" stroke-linejoin="round" stroke-width="1"/>
        </g>
      </g>
      <g id="Group_172" data-name="Group 172" transform="translate(11.461 -215.118)" clip-path="url(#clip-path-3)">
        <g id="Group_171" data-name="Group 171" transform="translate(-22.461 -16.882)" clip-path="url(#clip-path-2)">
          <path id="Path_158" data-name="Path 158" d="M141-119h19.886v3.577H141Z" transform="translate(-119.254 135.166)" fill="#fff"/>
        </g>
      </g>
      <g id="Group_174" data-name="Group 174" transform="translate(-11 -232)" clip-path="url(#clip-path-2)">
        <g id="Group_173" data-name="Group 173" transform="translate(22.461 16.882)">
          <path id="Path_161" data-name="Path 161" d="M18.455,2.146,0,0" fill="#fff" stroke="#212121" stroke-linecap="round" stroke-linejoin="round" stroke-width="1"/>
        </g>
      </g>
      <g id="Group_176" data-name="Group 176" transform="translate(-2.416 -227.422)" clip-path="url(#clip-path-6)">
        <g id="Group_175" data-name="Group 175" transform="translate(-60 -4.578)" clip-path="url(#clip-path-7)">
          <path id="Path_163" data-name="Path 163" d="M44-205H54v5.866H44Z" transform="translate(11 208.863)" fill="#fff"/>
        </g>
      </g>
      <g id="Group_179" data-name="Group 179" transform="translate(-11 -232)" clip-path="url(#clip-path-2)">
        <g id="Group_177" data-name="Group 177" transform="translate(8.584 4.578)">
          <path id="Path_166" data-name="Path 166" d="M1,4.435V0" transform="translate(-1)" fill="#fff" stroke="#212121" stroke-linecap="round" stroke-linejoin="round" stroke-width="1"/>
        </g>
        <g id="Group_178" data-name="Group 178" transform="translate(32.19 16.297)">
          <path id="Path_167" data-name="Path 167" d="M2.18,0,0,1.452V8.024" fill="none" stroke="#212121" stroke-linecap="round" stroke-linejoin="round" stroke-width="1"/>
        </g>
      </g>
      <g id="Group_181" data-name="Group 181" transform="translate(25.195 -213.473)" clip-path="url(#clip-path-9)">
        <g id="Group_180" data-name="Group 180" transform="translate(-36.195 -18.527)" clip-path="url(#clip-path-2)">
          <path id="Path_169" data-name="Path 169" d="M237-107.5h1.5v8.083H237Z" transform="translate(-201.52 125.312)" fill="#fff"/>
        </g>
      </g>
      <g id="Group_183" data-name="Group 183" transform="translate(-11 -232)" clip-path="url(#clip-path-2)">
        <g id="Group_182" data-name="Group 182" transform="translate(36.195 18.527)">
          <path id="Path_172" data-name="Path 172" d="M1.072.5,1,7.153" transform="translate(-1 -0.5)" fill="#fff" stroke="#212121" stroke-linecap="round" stroke-linejoin="round" stroke-width="1"/>
        </g>
      </g>
      <g id="Group_185" data-name="Group 185" transform="translate(26.197 -212.114)" clip-path="url(#clip-path-12)">
        <g id="Group_184" data-name="Group 184" transform="translate(-37.197 -19.886)" clip-path="url(#clip-path-13)">
          <path id="Path_174" data-name="Path 174" d="M244-98h2.575v2.575H244Z" transform="translate(-207.519 117.171)" fill="#212121"/>
        </g>
      </g>
      <g id="Group_187" data-name="Group 187" transform="translate(23.192 -212.543)" clip-path="url(#clip-path-14)">
        <g id="Group_186" data-name="Group 186" transform="translate(-34.192 -19.457)" clip-path="url(#clip-path-13)">
          <path id="Path_177" data-name="Path 177" d="M223-101h2.575v2.575H223Z" transform="translate(-189.523 119.741)" fill="#212121"/>
        </g>
      </g>
      <g id="Group_191" data-name="Group 191" transform="translate(15.181 -214.26)" clip-path="url(#clip-path-16)">
        <g id="Group_190" data-name="Group 190" transform="translate(-26.181 -17.74)" clip-path="url(#clip-path-2)">
          <path id="Path_183" data-name="Path 183" d="M167-113h2.575v2.575H167Z" transform="translate(-141.535 130.025)" fill="#fff"/>
        </g>
      </g>
      <g id="Group_198" data-name="Group 198" transform="translate(-11 -232)" clip-path="url(#clip-path-2)">
        <g id="Group_192" data-name="Group 192" transform="translate(5.866 15.165)">
          <path id="Path_186" data-name="Path 186" d="M1,0,0,1.717" fill="#fff" stroke="#212121" stroke-linecap="round" stroke-linejoin="round" stroke-width="1"/>
        </g>
        <g id="Group_193" data-name="Group 193" transform="translate(6.152 12.304)">
          <path id="Path_187" data-name="Path 187" d="M0,0H4.864V1.574H0Z" fill="#fff" stroke="#212121" stroke-linecap="round" stroke-linejoin="round" stroke-width="1"/>
        </g>
        <g id="Group_194" data-name="Group 194" transform="translate(8.584 15.165)">
          <path id="Path_188" data-name="Path 188" d="M1,0V2.575" transform="translate(-1)" fill="#fff" stroke="#212121" stroke-linecap="round" stroke-linejoin="round" stroke-width="1"/>
        </g>
        <g id="Group_195" data-name="Group 195" transform="translate(10.444 15.165)">
          <path id="Path_189" data-name="Path 189" d="M0,0,.858,1.717" fill="#fff" stroke="#212121" stroke-linecap="round" stroke-linejoin="round" stroke-width="1"/>
        </g>
        <g id="Group_196" data-name="Group 196" transform="translate(27.611 20.601)">
          <path id="Path_190" data-name="Path 190" d="M1,2.861V0" transform="translate(-1)" fill="#fff" stroke="#212121" stroke-linecap="round" stroke-linejoin="round" stroke-width="1"/>
        </g>
      </g>
      <g id="Group_200" data-name="Group 200" transform="translate(3.879 -221.699)" clip-path="url(#clip-path-19)">
        <g id="Group_199" data-name="Group 199" transform="translate(-14.879 -10.301)" clip-path="url(#clip-path-2)">
          <path id="Path_193" data-name="Path 193" d="M88-165h15.165v21.317H88Z" transform="translate(-73.837 174.585)" fill="#fff"/>
        </g>
      </g>
      <g id="Group_204" data-name="Group 204" transform="translate(7.741 -228.996)" clip-path="url(#clip-path-22)">
        <g id="Group_203" data-name="Group 203" transform="translate(-18.741 -3.004)" clip-path="url(#clip-path-2)">
          <path id="Path_198" data-name="Path 198" d="M115-216h7.153v7.439H115Z" transform="translate(-96.974 218.289)" fill="#fff"/>
        </g>
      </g>
      <g id="Group_210" data-name="Group 210" transform="translate(-11 -232)" clip-path="url(#clip-path-2)">
        <g id="Group_206" data-name="Group 206" transform="translate(18.226 16.023)">
          <path id="Path_202" data-name="Path 202" d="M.448,4.866.463,0" transform="translate(-0.448)" fill="#fff" stroke="#212121" stroke-linecap="round" stroke-linejoin="round" stroke-width="1"/>
        </g>
        <g id="Group_207" data-name="Group 207" transform="translate(25.489 16.063)">
          <path id="Path_203" data-name="Path 203" d="M.5,4.826V0" transform="translate(-0.5)" fill="#fff" stroke="#212121" stroke-linecap="round" stroke-linejoin="round" stroke-width="1"/>
        </g>
        <g id="Group_208" data-name="Group 208" transform="translate(21.746 21.46)">
          <path id="Path_204" data-name="Path 204" d="M1,8.727V0" transform="translate(-1)" fill="#fff" stroke="#212121" stroke-linecap="round" stroke-linejoin="round" stroke-width="1"/>
        </g>
      </g>
      <g id="Group_189" data-name="Group 189" transform="translate(17.756 -213.259)" clip-path="url(#clip-path-25)">
        <g id="Group_188" data-name="Group 188" transform="translate(-28.756 -18.741)" clip-path="url(#clip-path-13)">
          <path id="Path_180" data-name="Path 180" d="M185-106h2.575v2.575H185Z" transform="translate(-156.959 124.026)" fill="#212121"/>
        </g>
      </g>
    </g>
    <g id="Group_256" data-name="Group 256" transform="translate(9.482 238.751)">
      <g id="Group_215" data-name="Group 215" transform="translate(-11 -232)" clip-path="url(#clip-path-27)">
        <g id="Group_212" data-name="Group 212" transform="translate(2.148 2.434)">
          <path id="Path_207" data-name="Path 207" d="M0,0Q15.839,6.417,38.805,0V24.343q-14.944-6.43-38.805,0Z" fill="none" stroke="#212121" stroke-linecap="round" stroke-linejoin="round" stroke-width="1"/>
        </g>
        <g id="Group_213" data-name="Group 213" transform="translate(21.765 15.322)">
          <path id="Path_208" data-name="Path 208" d="M2.736,0,19.188,1.333V11.742a51.242,51.242,0,0,0-8.1-2.618A57.126,57.126,0,0,0,.954,8.2Q-1.615,8.2,2.736,0Z" fill="none" stroke="#212121" stroke-linecap="round" stroke-linejoin="round" stroke-width="1"/>
        </g>
        <g id="Group_214" data-name="Group 214" transform="translate(6.157 9.021)">
          <path id="Path_209" data-name="Path 209" d="M2.434,3.293H4.869C4.869,1.475,3.779,0,2.434,0S0,1.475,0,3.293Z" fill="none" stroke="#212121" stroke-linecap="round" stroke-linejoin="round" stroke-width="1"/>
        </g>
      </g>
      <g id="Group_217" data-name="Group 217" transform="translate(11.481 -215.103)" clip-path="url(#clip-path-28)">
        <g id="Group_216" data-name="Group 216" transform="translate(-22.481 -16.897)" clip-path="url(#clip-path-27)">
          <path id="Path_211" data-name="Path 211" d="M141-119h19.9v3.58H141Z" transform="translate(-119.235 135.181)" fill="#d7d7d7"/>
        </g>
      </g>
      <g id="Group_219" data-name="Group 219" transform="translate(-11 -232)" clip-path="url(#clip-path-27)">
        <g id="Group_218" data-name="Group 218" transform="translate(22.481 16.897)">
          <path id="Path_214" data-name="Path 214" d="M18.472,2.148,0,0" fill="none" stroke="#212121" stroke-linecap="round" stroke-linejoin="round" stroke-width="1"/>
        </g>
      </g>
      <g id="Group_221" data-name="Group 221" transform="translate(-2.408 -227.418)" clip-path="url(#clip-path-31)">
        <g id="Group_220" data-name="Group 220" transform="translate(-60 -4.582)" clip-path="url(#clip-path-32)">
          <path id="Path_216" data-name="Path 216" d="M44-205H54v5.871H44Z" transform="translate(11 208.866)" fill="#d7d7d7"/>
        </g>
      </g>
      <g id="Group_224" data-name="Group 224" transform="translate(-11 -232)" clip-path="url(#clip-path-27)">
        <g id="Group_222" data-name="Group 222" transform="translate(8.592 4.582)">
          <path id="Path_219" data-name="Path 219" d="M1,4.439V0" transform="translate(-1)" fill="none" stroke="#212121" stroke-linecap="round" stroke-linejoin="round" stroke-width="1"/>
        </g>
        <g id="Group_223" data-name="Group 223" transform="translate(32.218 16.312)">
          <path id="Path_220" data-name="Path 220" d="M2.182,0,0,1.453V8.031" fill="none" stroke="#212121" stroke-linecap="round" stroke-linejoin="round" stroke-width="1"/>
        </g>
      </g>
      <g id="Group_226" data-name="Group 226" transform="translate(25.228 -213.457)" clip-path="url(#clip-path-34)">
        <g id="Group_225" data-name="Group 225" transform="translate(-36.228 -18.543)" clip-path="url(#clip-path-27)">
          <path id="Path_222" data-name="Path 222" d="M237-107.5h1.5v8.09H237Z" transform="translate(-201.488 125.327)" fill="#d7d7d7"/>
        </g>
      </g>
      <g id="Group_228" data-name="Group 228" transform="translate(-11 -232)" clip-path="url(#clip-path-27)">
        <g id="Group_227" data-name="Group 227" transform="translate(36.228 18.543)">
          <path id="Path_225" data-name="Path 225" d="M1.072.5,1,7.158" transform="translate(-1 -0.5)" fill="none" stroke="#212121" stroke-linecap="round" stroke-linejoin="round" stroke-width="1"/>
        </g>
      </g>
      <g id="Group_230" data-name="Group 230" transform="translate(26.23 -212.096)" clip-path="url(#clip-path-37)">
        <g id="Group_229" data-name="Group 229" transform="translate(-37.23 -19.904)" clip-path="url(#clip-path-27)">
          <path id="Path_227" data-name="Path 227" d="M244-98h2.577v2.577H244Z" transform="translate(-207.486 117.188)" fill="#212121"/>
        </g>
      </g>
      <g id="Group_232" data-name="Group 232" transform="translate(23.223 -212.526)" clip-path="url(#clip-path-39)">
        <g id="Group_231" data-name="Group 231" transform="translate(-34.223 -19.474)" clip-path="url(#clip-path-27)">
          <path id="Path_230" data-name="Path 230" d="M223-101h2.577v2.577H223Z" transform="translate(-189.493 119.758)" fill="#212121"/>
        </g>
      </g>
      <g id="Group_234" data-name="Group 234" transform="translate(17.782 -213.242)" clip-path="url(#clip-path-41)">
        <g id="Group_233" data-name="Group 233" transform="translate(-28.782 -18.758)" clip-path="url(#clip-path-27)">
          <path id="Path_233" data-name="Path 233" d="M185-106h2.577v2.577H185Z" transform="translate(-156.934 124.042)" fill="#212121"/>
        </g>
      </g>
      <g id="Group_236" data-name="Group 236" transform="translate(15.204 -214.244)" clip-path="url(#clip-path-43)">
        <g id="Group_235" data-name="Group 235" transform="translate(-26.204 -17.756)" clip-path="url(#clip-path-27)">
          <path id="Path_236" data-name="Path 236" d="M167-113h2.577v2.577H167Z" transform="translate(-141.512 130.04)" fill="#777"/>
        </g>
      </g>
      <g id="Group_243" data-name="Group 243" transform="translate(-11 -232)" clip-path="url(#clip-path-27)">
        <g id="Group_237" data-name="Group 237" transform="translate(5.871 15.178)">
          <path id="Path_239" data-name="Path 239" d="M1,0,0,1.718" fill="none" stroke="#212121" stroke-linecap="round" stroke-linejoin="round" stroke-width="1"/>
        </g>
        <g id="Group_238" data-name="Group 238" transform="translate(6.157 12.315)">
          <path id="Path_240" data-name="Path 240" d="M0,0H4.869V1.575H0Z" fill="none" stroke="#212121" stroke-linecap="round" stroke-linejoin="round" stroke-width="1"/>
        </g>
        <g id="Group_239" data-name="Group 239" transform="translate(8.592 15.178)">
          <path id="Path_241" data-name="Path 241" d="M1,0V2.577" transform="translate(-1)" fill="none" stroke="#212121" stroke-linecap="round" stroke-linejoin="round" stroke-width="1"/>
        </g>
        <g id="Group_240" data-name="Group 240" transform="translate(10.453 15.178)">
          <path id="Path_242" data-name="Path 242" d="M0,0,.859,1.718" fill="none" stroke="#212121" stroke-linecap="round" stroke-linejoin="round" stroke-width="1"/>
        </g>
        <g id="Group_241" data-name="Group 241" transform="translate(27.636 20.62)">
          <path id="Path_243" data-name="Path 243" d="M1,2.864V0" transform="translate(-1)" fill="none" stroke="#212121" stroke-linecap="round" stroke-linejoin="round" stroke-width="1"/>
        </g>
        <g id="Group_242" data-name="Group 242" transform="translate(29.907 32.648) rotate(180)">
          <path id="Path_244" data-name="Path 244" d="M.466,2.434A5.381,5.381,0,0,1,4.077.389,22.7,22.7,0,0,1,8.285,0a16.066,16.066,0,0,1,6.131,1.092,6.7,6.7,0,0,1,1.562.9,2.378,2.378,0,0,1,1.041,1.8c0,2.1-3.911,3.793-8.735,3.793C4.431,7.589,1.16,6.505,0,5" fill="none" stroke="#e74c4c" stroke-linecap="round" stroke-linejoin="round" stroke-width="1"/>
        </g>
      </g>
      <g id="Group_247" data-name="Group 247" transform="translate(-11 -232)" clip-path="url(#clip-path-27)">
        <g id="Group_246" data-name="Group 246" transform="translate(14.892 10.31)">
          <path id="Path_249" data-name="Path 249" d="M3.355,10.393H.007Q-.225,0,6.979,0t6.739,10.393h-3.1v7.683Q9.854,19.9,6.979,19.9T3.355,18.076Z" fill="#e74c4c" stroke="#e74c4c" stroke-linecap="round" stroke-linejoin="round" stroke-width="1"/>
        </g>
      </g>
      <g id="Group_255" data-name="Group 255" transform="translate(-11 -232)" clip-path="url(#clip-path-27)">
        <g id="Group_250" data-name="Group 250" transform="translate(18.758 3.007)">
          <path id="Path_254" data-name="Path 254" d="M2.864,6.014A2.938,2.938,0,0,0,5.728,3.007,2.938,2.938,0,0,0,2.864,0,2.938,2.938,0,0,0,0,3.007,2.938,2.938,0,0,0,2.864,6.014Z" fill="#e74c4c" stroke="#e74c4c" stroke-linecap="round" stroke-linejoin="round" stroke-width="1"/>
        </g>
        <g id="Group_254" data-name="Group 254" transform="translate(27.923 29.211)">
          <path id="Path_258" data-name="Path 258" d="M2.011-17.136l.423-2.429L0-20" transform="translate(0 20)" fill="none" stroke="#e74c4c" stroke-linecap="round" stroke-linejoin="round" stroke-width="1"/>
        </g>
      </g>
    </g>
  </g>
</svg>
